<svg width="15" height="15" viewBox="0 0 15 15" fill="none" xmlns="http://www.w3.org/2000/svg">
<path d="M14.4512 13.0908C14.7543 13.0908 15 13.3316 15 13.6287C15 13.9011 14.7935 14.1261 14.5257 14.1618L14.4512 14.1667H8.72583C8.42274 14.1667 8.17705 13.9258 8.17705 13.6287C8.17705 13.3564 8.3835 13.1313 8.65136 13.0957L8.72583 13.0908H14.4512ZM8.88269 0.763848C9.92168 -0.254616 11.6069 -0.254616 12.6459 0.763848L13.7245 1.82116C14.7635 2.83963 14.7635 4.49154 13.7245 5.51L5.61717 13.4572C5.15359 13.9116 4.52506 14.1666 3.86901 14.1666H0.548784C0.240346 14.1666 -0.00751269 13.9175 0.000174082 13.6152L0.0836929 10.3312C0.100298 9.71052 0.359392 9.11877 0.807222 8.67979L8.88269 0.763848ZM8.255 2.89917L1.58331 9.44055C1.33438 9.68456 1.19012 10.0141 1.18089 10.3587L1.11121 13.0903L3.86901 13.0907C4.19352 13.0907 4.50559 12.9787 4.7519 12.7764L4.84108 12.6964L11.5458 6.12417L8.255 2.89917ZM11.8698 1.52461C11.2594 0.926302 10.2691 0.926302 9.65878 1.52461L9.03167 2.13833L12.3217 5.36333L12.9484 4.74924C13.5249 4.18417 13.5569 3.28694 13.0445 2.68496L12.9484 2.58192L11.8698 1.52461Z" fill="#EA7C69"/>
</svg>
